<?xml version="1.0" encoding="UTF-8" standalone="no"?>
<!DOCTYPE svg PUBLIC "-//W3C//DTD SVG 1.1//EN" "http://www.w3.org/Graphics/SVG/1.1/DTD/svg11.dtd">
<svg width="100%" height="100%" viewBox="0 0 2363 1182" version="1.1" xmlns="http://www.w3.org/2000/svg" xmlns:xlink="http://www.w3.org/1999/xlink" xml:space="preserve" xmlns:serif="http://www.serif.com/" style="fill-rule:evenodd;clip-rule:evenodd;stroke-linejoin:round;stroke-miterlimit:2;">
    <rect x="0" y="0" width="2362.2" height="1181.1" style="fill:rgb(255,68,136);"/>
    <g transform="matrix(2.17067,0,0,2.17067,-496.058,-656.91)">
        <path d="M426.295,497.024C438.463,497.024 449.2,499.44 458.505,504.272C467.811,509.103 475.058,516.142 480.248,525.387C485.437,534.633 488.032,545.638 488.032,558.403L488.032,625.151L445.8,625.151L445.8,599.919L406.074,599.919L406.074,625.151L364.558,625.151L364.558,558.403C364.558,545.638 367.153,534.633 372.342,525.387C377.532,516.142 384.779,509.103 394.084,504.272C403.39,499.44 414.126,497.024 426.295,497.024ZM445.8,568.066L445.8,554.824C445.8,547.07 443.981,541.195 440.342,537.198C436.704,533.202 431.902,531.203 425.937,531.203C419.972,531.203 415.17,533.202 411.532,537.198C407.893,541.195 406.074,547.07 406.074,554.824L406.074,568.066L445.8,568.066Z" style="fill:white;fill-rule:nonzero;"/>
        <path d="M564.442,531.74L564.442,593.298L583.232,593.298L583.232,625.151L503.421,625.151L503.421,593.298L522.211,593.298L522.211,531.74L503.421,531.74L503.421,499.887L583.232,499.887L583.232,531.74L564.442,531.74Z" style="fill:white;fill-rule:nonzero;"/>
        <path d="M694.895,592.403L694.895,625.151L594.505,625.151L594.505,599.203L639.779,557.33C643.716,553.631 646.341,550.47 647.653,547.845C648.965,545.221 649.621,542.656 649.621,540.151C649.621,537.049 648.577,534.633 646.49,532.903C644.402,531.173 641.39,530.309 637.453,530.309C633.635,530.309 630.056,531.323 626.716,533.351C623.376,535.379 620.811,538.242 619.021,541.94L587.169,526.014C591.941,517.066 598.92,509.998 608.106,504.809C617.291,499.619 628.386,497.024 641.39,497.024C651.292,497.024 660.06,498.635 667.695,501.856C675.33,505.077 681.295,509.67 685.59,515.635C689.885,521.6 692.032,528.459 692.032,536.214C692.032,543.133 690.57,549.605 687.648,555.63C684.725,561.654 679.028,568.484 670.558,576.119L652.663,592.403L694.895,592.403Z" style="fill:white;fill-rule:nonzero;"/>
        <path d="M858.632,497.024C873.544,497.024 885.176,501.498 893.527,510.445C901.878,519.393 906.053,532.277 906.053,549.098L906.053,625.151L863.822,625.151L863.822,550.351C863.822,544.147 862.211,539.405 858.99,536.124C855.769,532.844 851.355,531.203 845.748,531.203C840.022,531.203 835.458,532.963 832.058,536.482C828.658,540.002 826.958,545.102 826.958,551.782L826.958,625.151L784.727,625.151L784.727,550.351C784.727,544.147 783.265,539.405 780.343,536.124C777.42,532.844 773.334,531.203 768.085,531.203C762.716,531.203 758.481,532.963 755.379,536.482C752.278,540.002 750.727,545.102 750.727,551.782L750.727,625.151L708.495,625.151L708.495,499.887L749.295,499.887L749.295,512.414C757.05,502.154 768.562,497.024 783.832,497.024C799.818,497.024 811.688,502.631 819.443,513.845C823.857,508.238 829.434,504.033 836.174,501.23C842.914,498.426 850.4,497.024 858.632,497.024Z" style="fill:white;fill-rule:nonzero;"/>
        <path d="M986.043,497.024C998.211,497.024 1008.95,499.44 1018.25,504.272C1027.56,509.103 1034.81,516.142 1040,525.387C1045.18,534.633 1047.78,545.638 1047.78,558.403L1047.78,625.151L1005.55,625.151L1005.55,599.919L965.822,599.919L965.822,625.151L924.306,625.151L924.306,558.403C924.306,545.638 926.901,534.633 932.09,525.387C937.279,516.142 944.527,509.103 953.832,504.272C963.137,499.44 973.874,497.024 986.043,497.024ZM1005.55,568.066L1005.55,554.824C1005.55,547.07 1003.73,541.195 1000.09,537.198C996.451,533.202 991.65,531.203 985.685,531.203C979.72,531.203 974.918,533.202 971.28,537.198C967.641,541.195 965.822,547.07 965.822,554.824L965.822,568.066L1005.55,568.066Z" style="fill:white;fill-rule:nonzero;"/>
        <path d="M1166.78,543.73C1157.12,538.361 1147.33,534.663 1137.43,532.635L1137.43,625.151L1095.2,625.151L1095.2,532.635C1085.3,534.663 1075.52,538.361 1065.85,543.73L1051.89,513.666C1060.84,508.298 1070.86,504.182 1081.96,501.319C1093.05,498.456 1104.51,497.024 1116.32,497.024C1128.13,497.024 1139.58,498.456 1150.67,501.319C1161.77,504.182 1171.79,508.298 1180.74,513.666L1166.78,543.73Z" style="fill:white;fill-rule:nonzero;"/>
    </g>
</svg>
